<svg id="Calque_1" data-name="Calque 1" xmlns="http://www.w3.org/2000/svg" viewBox="0 0 804 503.13"><defs><style>.cls-1{fill:#5f2756;}.cls-2{fill:#f8a255;}.cls-3{fill:#612656;}.cls-4{fill:#e14b56;}</style></defs><title>logo-labs</title><path class="cls-1" d="M668.55,928.83H643.41V921a38.43,38.43,0,0,1-12.87,7.54,44.33,44.33,0,0,1-14.28,2.31,49.3,49.3,0,0,1-20.61-4.43,45,45,0,0,1-16.19-12.06A50,50,0,0,1,570.3,899a52.61,52.61,0,0,1-3.31-18.8,53.18,53.18,0,0,1,3.72-20.11A50.12,50.12,0,0,1,581,844a48.45,48.45,0,0,1,15.19-10.76,44.65,44.65,0,0,1,18.7-3.93,45.1,45.1,0,0,1,15.59,2.62,46.43,46.43,0,0,1,13,7.24v-7.84h25.14ZM642.4,865.48a30.25,30.25,0,0,0-10.25-8.75,29.1,29.1,0,0,0-13.88-3.32,23.54,23.54,0,0,0-18.3,8.14,28,28,0,0,0-5,8.55,28.35,28.35,0,0,0-1.81,10.06A28.8,28.8,0,0,0,595,890.82a24.23,24.23,0,0,0,5.43,8.34,25.9,25.9,0,0,0,18.4,7.55,28.12,28.12,0,0,0,13.58-3.32,28.59,28.59,0,0,0,9.95-8.75Z" transform="translate(-566.99 -473.97)"/><path class="cls-1" d="M752.13,854.41a27.73,27.73,0,0,0-4-.7,47.55,47.55,0,0,0-5.43-.3,23,23,0,0,0-8,1.41,31.83,31.83,0,0,0-6.94,3.52,29.42,29.42,0,0,0-5.33,4.52,23.5,23.5,0,0,0-3.42,4.63v61.34H692.8V831.29h25.14v9.85a30.72,30.72,0,0,1,11.87-8.65,41.22,41.22,0,0,1,16.49-3.22,44.52,44.52,0,0,1,4.73.21c1.27.13,2.64.33,4.12.6Z" transform="translate(-566.99 -473.97)"/><path class="cls-1" d="M764.6,796.69a15.79,15.79,0,0,1,5-11.86,17.48,17.48,0,0,1,24.13,0,16.51,16.51,0,0,1,0,23.73,17.48,17.48,0,0,1-24.13,0A15.81,15.81,0,0,1,764.6,796.69Zm30.17,132.14H768.62V831.29h26.15Z" transform="translate(-566.99 -473.97)"/><path class="cls-1" d="M892.25,928.83a31.09,31.09,0,0,1-7.54,1.51q-4.94.49-8.75.5-11.87,0-20.31-3.72a33.28,33.28,0,0,1-13.48-10.36,32.21,32.21,0,0,1-5.53-11.86,73,73,0,0,1-1.71-17.3V853.41H807.78V831.29h27.15V804.13h26.15v27.16h32.17v22.12H861.08v37.21a27.82,27.82,0,0,0,.8,7.44,13.4,13.4,0,0,0,2.41,4.82,14.06,14.06,0,0,0,5.23,3.52,21.36,21.36,0,0,0,8.05,1.31q2.8,0,6-.3a28.41,28.41,0,0,0,4.63-.7Z" transform="translate(-566.99 -473.97)"/><path class="cls-1" d="M919.8,977.1l27-58.13-43.64-87.68h28.76l28.56,58.52,26.34-58.52h27.56L947.15,977.1Z" transform="translate(-566.99 -473.97)"/><path class="cls-2" d="M1027.22,786h19.1v142.8h-19.1Z" transform="translate(-566.99 -473.97)"/><path class="cls-2" d="M1144.49,920.18a40.51,40.51,0,0,1-13.27,7.94,46,46,0,0,1-15.89,2.72,47.66,47.66,0,0,1-12.67-1.71,45.7,45.7,0,0,1-11.06-4.53A49.33,49.33,0,0,1,1074.1,907a51.93,51.93,0,0,1,.1-51,50.16,50.16,0,0,1,17.6-17.7,44.58,44.58,0,0,1,10.66-4.42,46.73,46.73,0,0,1,12.46-1.61,48.86,48.86,0,0,1,15.59,2.52,40.6,40.6,0,0,1,14,8.14V834.3H1163v94.53h-18.5Zm-.6-56.31a35.67,35.67,0,0,0-11.37-9.66,31.82,31.82,0,0,0-15.58-3.82,30.17,30.17,0,0,0-12.47,2.52,28.24,28.24,0,0,0-9.56,6.83,32.51,32.51,0,0,0-8.34,21.83,31.43,31.43,0,0,0,2.31,12.06,29.71,29.71,0,0,0,6.54,9.86,32.13,32.13,0,0,0,9.95,6.73,31.35,31.35,0,0,0,26.75-1,33.37,33.37,0,0,0,11.77-10Z" transform="translate(-566.99 -473.97)"/><path class="cls-2" d="M1209,928.83h-18.51V786h19.11v56.52a44.29,44.29,0,0,1,13.88-7.74,47.56,47.56,0,0,1,27.55-.91,44.75,44.75,0,0,1,10.66,4.42,50.24,50.24,0,0,1,17.6,17.7,51.93,51.93,0,0,1,.1,51,49.41,49.41,0,0,1-17.5,17.59,46,46,0,0,1-11.06,4.53,47.71,47.71,0,0,1-12.67,1.71q-17.3,0-29.16-10.66Zm.6-29.57a33.37,33.37,0,0,0,11.77,10,31.32,31.32,0,0,0,26.74,1,32.17,32.17,0,0,0,10-6.73,29.87,29.87,0,0,0,6.54-9.86,31.43,31.43,0,0,0,2.31-12.06,32.45,32.45,0,0,0-8.35-21.83,28.2,28.2,0,0,0-9.55-6.83,30.2,30.2,0,0,0-12.47-2.52,31.86,31.86,0,0,0-15.59,3.82,35.63,35.63,0,0,0-11.36,9.66Z" transform="translate(-566.99 -473.97)"/><path class="cls-2" d="M1307.43,903.69q13.47,10.45,28,10.46a21.45,21.45,0,0,0,11.36-3.12,9.73,9.73,0,0,0,5.13-8.75,8.16,8.16,0,0,0-2.71-6.43,21.13,21.13,0,0,0-6.94-3.93,85.57,85.57,0,0,0-9.46-2.71,102.7,102.7,0,0,1-10.45-3,51.13,51.13,0,0,1-8.15-3.52,29.74,29.74,0,0,1-6.94-5.13,24.26,24.26,0,0,1-4.82-6.83,20.42,20.42,0,0,1-1.81-8.85,26.41,26.41,0,0,1,3.11-13.18,28.77,28.77,0,0,1,8-9.15,35.33,35.33,0,0,1,11.16-5.43,45.44,45.44,0,0,1,12.67-1.81,50.85,50.85,0,0,1,18.1,2.92,47.24,47.24,0,0,1,13.27,7.54l-9.85,13.68a39.22,39.22,0,0,0-9.45-5.43,29.05,29.05,0,0,0-10.86-2,22.42,22.42,0,0,0-12.07,3.12,9.79,9.79,0,0,0-5,8.75q0,4.83,4.93,7a73.79,73.79,0,0,0,12,4q5.63,1.41,11.66,3.52a47.48,47.48,0,0,1,11.06,5.53,29.83,29.83,0,0,1,8.35,8.55,22.3,22.3,0,0,1,3.32,12.37,25.17,25.17,0,0,1-2.92,12.07,28.26,28.26,0,0,1-7.74,9.15,35.75,35.75,0,0,1-11.27,5.73,44.23,44.23,0,0,1-13.27,2q-22.12,0-38.21-13.07Z" transform="translate(-566.99 -473.97)"/><path class="cls-3" d="M821.51,732c-98.28,0,7.19-100.58-50.29-129.32C828.7,574,723.23,474,821.8,474l3.73,3.45c-74.71.28,8.63,96.55-38.5,125.29,47.13,28.74-36.21,124.72,38.5,124.72Z" transform="translate(-566.99 -473.97)"/><path class="cls-2" d="M1112.44,727.43c74.71,0-8.62-96,38.51-124.72-47.13-28.74,36.2-125-38.51-125.29l3.73-3.45c98.57,0-6.89,100,50.58,128.74-57.47,28.74,48,129.32-50.29,129.32Z" transform="translate(-566.99 -473.97)"/><path class="cls-2" d="M997.49,653.09v26.24h19.36V603.39l-38,66.93a89.5,89.5,0,0,0,18.61-17.23" transform="translate(-566.99 -473.97)"/><path class="cls-3" d="M908.28,657A60.2,60.2,0,0,1,886.07,634a61.86,61.86,0,0,1-.08-61.66,59.25,59.25,0,0,1,52.35-30.7q25.51,0,43,17.8a60.78,60.78,0,0,1,9.4,12.35l25.62-45.16H997.49v28.06q-11.52-16-26.73-24a72.12,72.12,0,0,0-34-8q-32.55,0-55.7,23.43t-23.16,56.41q0,33.67,22.94,57.18,19.91,20.38,46.92,23.08l10-17.7A58,58,0,0,1,908.28,657" transform="translate(-566.99 -473.97)"/><polygon class="cls-2" points="473.78 87.26 473.78 234.83 493.43 234.83 493.43 52.63 473.78 87.26"/><polygon class="cls-4" points="489.39 0 343.01 258.06 366.73 258.06 513.11 0 489.39 0"/></svg>