<svg id="Calque_1" data-name="Calque 1" xmlns="http://www.w3.org/2000/svg" viewBox="0 0 140.55 90.1"><defs><style>.cls-1{fill:#d3145b;}.cls-2{fill:#b3b3b2;}</style></defs><title>logo</title><path class="cls-1" d="M293.87,91.1a46.11,46.11,0,0,1-9.5-8.9,52.59,52.59,0,0,1-6.85-11,60.4,60.4,0,0,1-4.2-12.4,59.7,59.7,0,0,1,4.05-37.9,53.53,53.53,0,0,1,6.75-11,44.13,44.13,0,0,1,9.35-8.8l4,5.4A44.57,44.57,0,0,0,284,23.7a53.41,53.41,0,0,0-4.25,21.6,64.26,64.26,0,0,0,1,11.5,47.75,47.75,0,0,0,3.15,10.65A44.24,44.24,0,0,0,289.41,77a41.71,41.71,0,0,0,8.1,8.1Z" transform="translate(-271.87 -1.05)"/><path class="cls-2" d="M301.69,28.7l13.2-7.1-13.2-6.9,3.8-6.2,12.4,8.4-1.2-14.6h7.6l-1.2,14.6,12.4-8.4,3.8,6.2-13.2,6.9,13.2,7.1-3.8,6.2-12.4-8,1.2,14h-7.6l1.2-14-12.4,8Z" transform="translate(-271.87 -1.05)"/><path class="cls-1" d="M390.41,1.05a46.39,46.39,0,0,1,9.5,8.9A52.93,52.93,0,0,1,406.76,21,61,61,0,0,1,411,33.4a58.67,58.67,0,0,1,1.45,13,60.26,60.26,0,0,1-5.5,25,53.61,53.61,0,0,1-6.75,10.95,43.87,43.87,0,0,1-9.35,8.8l-4-5.4a44.51,44.51,0,0,0,13.55-17.2A53.75,53.75,0,0,0,404.61,47a58.25,58.25,0,0,0-4.2-22.21,42.26,42.26,0,0,0-13.6-17.65Z" transform="translate(-271.87 -1.05)"/><path class="cls-2" d="M355.72,4.24V51.15q0,8.41,3.53,12.58t11.24,4.16H380V77H369a25.57,25.57,0,0,1-9.57-1.71,20.87,20.87,0,0,1-7.28-4.84,21.39,21.39,0,0,1-4.63-7.43,27.13,27.13,0,0,1-1.61-9.52V4.24Z" transform="translate(-271.87 -1.05)"/></svg>