<svg id="Calque_1" data-name="Calque 1" xmlns="http://www.w3.org/2000/svg" viewBox="0 0 501.19 92.2"><defs><style>.cls-1{fill:#4e4d4d;}.cls-2{fill:#d3145b;}.cls-3{fill:#b3b3b2;}</style></defs><title>logo-arity</title><path class="cls-1" d="M277.21,131.51v-22.4q0-6.49-2.9-9.65t-8.4-3.15a11.34,11.34,0,0,0-7.7,3,10.68,10.68,0,0,0-2.4,3.35,10,10,0,0,0-.9,4.25,12.35,12.35,0,0,0,.9,4.9,10.18,10.18,0,0,0,2.4,3.5,9.87,9.87,0,0,0,3.4,2.1,11.15,11.15,0,0,0,3.9.7,19.38,19.38,0,0,0,4.35-.45,28.85,28.85,0,0,0,3.35-1v13.2a13.92,13.92,0,0,1-4.9,2.2,26.81,26.81,0,0,1-6,.6,22,22,0,0,1-7.95-1.6,23.45,23.45,0,0,1-7.6-4.8,25,25,0,0,1-5.65-8,26.13,26.13,0,0,1-2.2-11,25.5,25.5,0,0,1,2-10.15,25.08,25.08,0,0,1,5.55-8.1,25.6,25.6,0,0,1,8.45-5.4,28.72,28.72,0,0,1,10.7-2,37,37,0,0,1,10.7,1.5,25.57,25.57,0,0,1,8.75,4.5,21.83,21.83,0,0,1,5.95,7.4,22.52,22.52,0,0,1,2.2,10.2v26.2Z" transform="translate(-238.91 -60.31)"/><path class="cls-1" d="M314.91,91h.2a13.77,13.77,0,0,1,2.2-4.2,9.06,9.06,0,0,1,3.05-2.45,13.2,13.2,0,0,1,3.95-1.15,35.71,35.71,0,0,1,4.8-.3v14.6a40.88,40.88,0,0,0-6.6.75,6.91,6.91,0,0,0-3.6,1.85,6.43,6.43,0,0,0-1.55,3.4,32.84,32.84,0,0,0-.35,5.2v22.8H301V82.91h13.9Z" transform="translate(-238.91 -60.31)"/><path class="cls-1" d="M335.41,69.41a8.73,8.73,0,0,1,2.65-6.5,9.3,9.3,0,0,1,12.9,0,9.3,9.3,0,0,1,0,13,9.3,9.3,0,0,1-12.9,0A8.72,8.72,0,0,1,335.41,69.41Zm17.1,62.1h-16V82.91h16Z" transform="translate(-238.91 -60.31)"/><path class="cls-1" d="M389,82.51v14.6h-11.4v13a11.71,11.71,0,0,0,.4,3.4,4.07,4.07,0,0,0,1.35,2,5.3,5.3,0,0,0,2.55,1,33.7,33.7,0,0,0,3.9.35c.53,0,1.1,0,1.7,0s1.17-.08,1.7-.15v14.8h-9a20.4,20.4,0,0,1-7.95-1.4,16,16,0,0,1-5.6-3.8,15.44,15.44,0,0,1-3.35-5.55,20.08,20.08,0,0,1-1.1-6.65V70.91h15.5v11.6Z" transform="translate(-238.91 -60.31)"/><path class="cls-1" d="M408.91,152.51v-20.6q-7-2.1-10.1-6.7a19.34,19.34,0,0,1-3.1-11.1V82.91h15.4v28.2a11.51,11.51,0,0,0,.25,2.4,6.81,6.81,0,0,0,.85,2.2,4.26,4.26,0,0,0,1.75,1.6,6.37,6.37,0,0,0,3,.6q3.39,0,4.4-2.1a12.7,12.7,0,0,0,1-5.4V82.91h15.4v31.2q0,7.2-3.55,11.6a18.86,18.86,0,0,1-9.25,6.2v20.6Z" transform="translate(-238.91 -60.31)"/><path class="cls-2" d="M470.91,150.31a46.17,46.17,0,0,1-9.5-8.9,52.67,52.67,0,0,1-6.85-11,60.79,60.79,0,0,1-4.2-12.4,58.43,58.43,0,0,1-.05-25.65,59.4,59.4,0,0,1,4.1-12.25,53.82,53.82,0,0,1,6.75-11,44.1,44.1,0,0,1,9.35-8.8l4,5.4A44.66,44.66,0,0,0,461,82.91a53.65,53.65,0,0,0-4.25,21.6,64.9,64.9,0,0,0,1,11.5,48.2,48.2,0,0,0,3.15,10.65,44.75,44.75,0,0,0,5.55,9.55,42,42,0,0,0,8.1,8.1Z" transform="translate(-238.91 -60.31)"/><path class="cls-3" d="M486.81,87.91l13.2-7.1-13.2-6.9,3.8-6.2,12.4,8.4-1.2-14.6h7.6l-1.2,14.6,12.4-8.4,3.8,6.2-13.2,6.9,13.2,7.1-3.8,6.2-12.4-8,1.2,14h-7.6l1.2-14-12.4,8Z" transform="translate(-238.91 -60.31)"/><path class="cls-3" d="M537.31,131.51v-70h8.8v70Z" transform="translate(-238.91 -60.31)"/><path class="cls-3" d="M595.61,131.51v-27a13,13,0,0,0-1.3-6,12.6,12.6,0,0,0-3.5-4.25,15.66,15.66,0,0,0-5-2.55,20.1,20.1,0,0,0-5.8-.85,15.53,15.53,0,0,0-6.55,1.35,14.87,14.87,0,0,0-5,3.65,16.21,16.21,0,0,0-3.15,5.35,18.76,18.76,0,0,0-1.1,6.45,17.38,17.38,0,0,0,1.15,6.3,15.89,15.89,0,0,0,3.25,5.25,15.39,15.39,0,0,0,4.95,3.55,15.05,15.05,0,0,0,6.35,1.3,12.64,12.64,0,0,0,6.8-1.85,20.36,20.36,0,0,0,5.3-4.75v10.4a27,27,0,0,1-5.5,3.3,18.46,18.46,0,0,1-7.5,1.3,22.12,22.12,0,0,1-9.5-2,23.18,23.18,0,0,1-7.45-5.45,24.74,24.74,0,0,1-4.9-8.1,27.92,27.92,0,0,1-1.75-9.95,26.79,26.79,0,0,1,1.7-9.6,22.32,22.32,0,0,1,4.9-7.8,22.85,22.85,0,0,1,7.8-5.2,27.12,27.12,0,0,1,10.4-1.9,29.88,29.88,0,0,1,10,1.6,21.29,21.29,0,0,1,7.65,4.6,20.44,20.44,0,0,1,4.85,7.2,24.94,24.94,0,0,1,1.7,9.4v26.2Z" transform="translate(-238.91 -60.31)"/><path class="cls-3" d="M621.21,61.51v43a28.07,28.07,0,0,0,1.19,8.65,17.71,17.71,0,0,0,3.31,6.1,13.21,13.21,0,0,0,4.9,3.65,15,15,0,0,0,6,1.2,16.19,16.19,0,0,0,6.44-1.25,14.73,14.73,0,0,0,5.05-3.45,15.84,15.84,0,0,0,3.3-5.25,18.06,18.06,0,0,0,1.2-6.75q0-7.5-4.3-12t-11.5-4.5a18.19,18.19,0,0,0-6.34,1.25,25.13,25.13,0,0,0-5.75,3v-9.2a25.4,25.4,0,0,1,6.59-2.6,30.67,30.67,0,0,1,7-.8,21.64,21.64,0,0,1,8.8,1.85,23.83,23.83,0,0,1,7.36,5,24.9,24.9,0,0,1,5,7.55,23.06,23.06,0,0,1,1.9,9.35,29.62,29.62,0,0,1-1.69,10,25.61,25.61,0,0,1-4.86,8.35,22.52,22.52,0,0,1-7.8,5.7,25.06,25.06,0,0,1-10.44,2.1,24.47,24.47,0,0,1-9.75-1.9,22,22,0,0,1-7.65-5.35,24.27,24.27,0,0,1-5-8.35,30.83,30.83,0,0,1-1.81-10.8V61.51Z" transform="translate(-238.91 -60.31)"/><path class="cls-3" d="M666.8,123.11h24.6c2.07,0,3.54-.38,4.4-1.15a4.34,4.34,0,0,0,1.3-3.45,4,4,0,0,0-2.25-3.55,26,26,0,0,0-5.6-2.4c-2.23-.7-4.66-1.41-7.29-2.15a38.92,38.92,0,0,1-7.31-2.8,18.06,18.06,0,0,1-5.6-4.3,10,10,0,0,1-2.25-6.8q0-6.39,4.25-9.7t12.16-3.3H703.9v8.4H681.71c-2.14,0-3.59.32-4.36,1A4.62,4.62,0,0,0,676,96.11a3.75,3.75,0,0,0,2.25,3.35,27.57,27.57,0,0,0,5.6,2.25q3.36,1,7.3,2.05a35.45,35.45,0,0,1,7.3,2.8,17.77,17.77,0,0,1,5.6,4.5,10.8,10.8,0,0,1,2.25,7q0,6.81-4.25,10.1a16.83,16.83,0,0,1-10.65,3.3H666.8Z" transform="translate(-238.91 -60.31)"/><path class="cls-2" d="M718.1,60.31a46.44,46.44,0,0,1,9.5,8.9,52.93,52.93,0,0,1,6.85,11.05,61,61,0,0,1,4.2,12.4,58.69,58.69,0,0,1,1.45,13,60.38,60.38,0,0,1-5.5,25,53.82,53.82,0,0,1-6.75,10.95,43.84,43.84,0,0,1-9.35,8.8l-4-5.4a44.51,44.51,0,0,0,13.55-17.2,53.75,53.75,0,0,0,4.25-21.6A58.36,58.36,0,0,0,728.1,84a42.24,42.24,0,0,0-13.6-17.65Z" transform="translate(-238.91 -60.31)"/></svg>